# xmcd
#
# Track frame offsets:
#  150
#  14286
#  29455
#  46910
#  64588
#  93287
#  109374
#  126222
#  143681
#  159582
#  178783
#  193920
#  220532
#  238663
#  253252
#  268176
#  289032
#  309294
#  326102
#
# Disc length: 4446 seconds
#
# Revision: 0
# Processed by: cddbd v1.5.1PL0 Copyright (c) Steve Scherf et al.
# Submitted via: Collectorz.com Music Collector 6.9
#
DISCID=18115c13
DTITLE=Di Lernia Leone - The best of the bestia
DYEAR=1900
DGENRE=
TTITLE0=Leone Di Lernia - Zoo 2004
TTITLE1=Leone Di Lernia - Pitbull
TTITLE2=Leone Di Lernia - Zoo Cess
TTITLE3=Leone Di Lernia - Me Ne Stò Quì A Bari
TTITLE4=Leone Di Lernia - La Cassa
TTITLE5=Leone Di Lernia - La Mia Storia
TTITLE6=Leone Di Lernia - L'africano
TTITLE7=Leone Di Lernia - Tu M'ha Fottut
TTITLE8=Leone Di Lernia - Tutti Vogliono Fare La TV
TTITLE9=Leone Di Lernia - Ronaldo
TTITLE10=Leone Di Lernia - Pappagallo
TTITLE11=Leone Di Lernia - Bill Lader
TTITLE12=Leone Di Lernia - Leone Leone Sei Un Terrone
TTITLE13=Leone Di Lernia - Sul Water
TTITLE14=Leone Di Lernia - Siamo In Crisi
TTITLE15=Leone Di Lernia - Il Mulo E La Mula
TTITLE16=Leone Di Lernia - Passami La Palla
TTITLE17=Leone Di Lernia - Ho Preso 0
TTITLE18=Leone Di Lernia - Consigli Per Gli Acquisti
EXTD=
EXTT0=
EXTT1=
EXTT2=
EXTT3=
EXTT4=
EXTT5=
EXTT6=
EXTT7=
EXTT8=
EXTT9=
EXTT10=
EXTT11=
EXTT12=
EXTT13=
EXTT14=
EXTT15=
EXTT16=
EXTT17=
EXTT18=
PLAYORDER=
